<svg width="76" height="51" viewBox="0 0 76 51" fill="none" xmlns="http://www.w3.org/2000/svg">
<path d="M46.0724 50.993C45.1797 51.0933 44.6486 50.0908 45.2475 49.4226C52.7393 41.1136 61.6097 34.7203 71.7796 30.0312C72.5367 29.6859 73.9604 29.6637 74.4689 30.1315C74.9887 30.5993 75.113 32.0472 74.7627 32.76C73.7457 34.854 72.661 37.0036 71.1581 38.7634C64.559 46.4598 55.8355 49.8458 46.0724 50.993Z" fill="#2D68BF"/>
<path d="M28.0831 50.8928C29.2696 51.0487 29.9702 49.701 29.1679 48.8323C21.7891 40.8129 13.0995 34.609 3.17822 30.0312C2.42113 29.6859 0.997348 29.6637 0.488855 30.1315C-0.0196389 30.5993 -0.155234 32.0472 0.195061 32.76C1.21205 34.854 2.29683 37.0036 3.79971 38.7635C10.218 46.2482 18.6364 49.6565 28.0831 50.8928Z" fill="#2D68BF"/>
<path d="M42.6033 33.0717C42.1514 34.1075 40.6259 33.7845 40.7389 32.6596C41.6994 22.5574 44.6034 12.9564 49.564 3.90112C50.92 1.43961 54.0501 1.32823 57.1349 3.41104C59.4288 4.94809 59.1576 6.89725 57.5417 8.77958C51.2251 16.1196 46.4227 24.2838 42.6033 33.0717Z" fill="#2D68BF"/>
<path d="M34.2413 33.0717C34.6933 34.1075 36.2188 33.7845 36.1058 32.6596C35.1453 22.5574 32.2412 12.9564 27.2806 3.90112C25.9246 1.43961 22.7946 1.32823 19.7097 3.41104C17.4158 4.94809 17.687 6.89725 19.3029 8.77958C25.6195 16.1196 30.422 24.2838 34.2413 33.0717Z" fill="#2D68BF"/>
<path d="M31.1794 35.5331C31.5749 36.5578 30.298 37.2595 29.5974 36.413C26.5126 32.6818 23.6311 29.151 20.4671 25.8876C16.8512 22.1786 12.6363 19.0488 8.63617 15.7297C6.6474 14.0812 6.12761 12.288 8.02598 10.4057C9.84526 8.61244 12.06 6.0841 14.6477 8.81292C21.9587 16.5205 27.2809 25.4086 31.1794 35.5331Z" fill="#2D68BF"/>
<path d="M47.8914 34.8428C47.1908 35.7338 45.767 35.021 46.1738 33.9629C49.6881 24.7294 54.7843 16.4093 61.6094 9.05818C64.2084 6.26252 66.344 8.23396 68.2989 10.0717C70.1634 11.8427 70.3894 13.8475 68.1859 15.4069C60.4116 20.9313 53.7334 27.4694 47.8914 34.8428Z" fill="#2D68BF"/>
<path d="M39.2135 21.1317C38.8971 22.0004 37.6541 22.0116 37.3151 21.1428C35.4168 16.1752 33.3263 10.6842 31.2358 5.18198C30.0041 1.95194 31.1228 0.270098 34.7388 0.0807509C36.9987 -0.0306296 39.2474 -0.0194916 41.5074 0.0696128C45.485 0.225546 46.4454 1.94081 44.9991 5.68319C42.9651 10.9626 41.0102 16.2755 39.2135 21.1317Z" fill="#2D68BF"/>
<path d="M26.0035 36.9368C26.625 37.7833 25.6532 38.7969 24.738 38.2622C17.7321 34.1746 10.4663 29.9087 3.11006 25.7765C0.0252014 24.0501 0.635392 21.8225 1.68628 19.4835C2.70326 17.2224 4.60164 16.7546 6.61301 18.158C14.2743 23.5489 20.8621 29.9421 26.0035 36.9368Z" fill="#2D68BF"/>
<path d="M51.3718 38.9417C50.4678 39.5765 49.4056 38.5518 50.061 37.6608C55.8691 29.7416 62.4004 23.2704 70.2086 17.991C72.1635 16.6656 73.9262 17.3673 74.8415 19.3276C75.915 21.6109 76.7851 24.0612 73.5985 25.6317C70.1521 27.347 66.5474 28.8283 63.3044 30.8554C59.3607 33.3504 55.5414 36.0346 51.3718 38.9417Z" fill="#2D68BF"/>
</svg>
